<?xml version="1.0" encoding="utf-8"?>
<!-- Generator: Adobe Illustrator 16.0.0, SVG Export Plug-In . SVG Version: 6.00 Build 0)  -->
<!DOCTYPE svg PUBLIC "-//W3C//DTD SVG 1.1//EN" "http://www.w3.org/Graphics/SVG/1.1/DTD/svg11.dtd">
<svg version="1.1" id="Layer_1" xmlns="http://www.w3.org/2000/svg" xmlns:xlink="http://www.w3.org/1999/xlink" x="0px" y="0px"
	 width="24px" height="24px" viewBox="0 0 24 24" enable-background="new 0 0 24 24" xml:space="preserve">
<g>
	<path d="M9.279,10.443c-0.604,0-1.089,0.611-1.089,1.363c0,0.753,0.486,1.365,1.089,1.365c0.6,0,1.087-0.611,1.087-1.365
		C10.366,11.054,9.879,10.443,9.279,10.443z M9.523,11.605c-0.274,0-0.497-0.225-0.497-0.498c0-0.276,0.223-0.498,0.497-0.498
		c0.275,0,0.497,0.222,0.497,0.498C10.02,11.38,9.798,11.605,9.523,11.605z"/>
	<path d="M13.214,10.393c-0.601,0-1.088,0.611-1.088,1.364c0,0.754,0.487,1.364,1.088,1.364c0.603,0,1.089-0.61,1.089-1.364
		C14.303,11.003,13.817,10.393,13.214,10.393z M13.461,11.554c-0.276,0-0.498-0.223-0.498-0.498c0-0.273,0.222-0.497,0.498-0.497
		c0.273,0,0.496,0.223,0.496,0.497C13.957,11.331,13.734,11.554,13.461,11.554z"/>
	<path d="M11.929,14.354c-0.053,0.063-0.364,0.158-0.771,0.172c-0.283-0.004-0.517-0.072-0.597-0.173
		c-0.086-0.107-0.244-0.126-0.352-0.041c-0.108,0.086-0.126,0.243-0.041,0.352c0.25,0.315,0.741,0.363,1.017,0.363
		c0.431,0.008,0.94-0.112,1.137-0.364c0.084-0.108,0.064-0.26-0.042-0.346C12.175,14.233,12.017,14.25,11.929,14.354z"/>
	<path d="M18.112,10c0.098-0.356,0.474-1.797,0.416-2.816h0.079c0.087,0,0.168-0.046,0.214-0.121s0.048-0.168,0.008-0.245
		l-0.892-1.705l0.271-0.128c0.074-0.035,0.126-0.104,0.14-0.185c0.014-0.081-0.014-0.163-0.072-0.22l-1.43-1.389l0.049-0.061
		c0.052-0.064,0.069-0.15,0.045-0.229c-0.023-0.079-0.085-0.142-0.164-0.167l-2.402-0.76l0.114-0.39
		c0.026-0.088,0.001-0.183-0.063-0.247c-0.066-0.065-0.162-0.09-0.247-0.063L12.051,1.9c-0.019,0.005-0.026,0.025-0.042,0.034
		L9.864,0.588c-0.009-0.005-0.02,0-0.029-0.005c-0.03-0.015-0.058-0.014-0.091-0.016c-0.033-0.001-0.06-0.006-0.09,0.005
		c-0.01,0.003-0.02-0.003-0.03,0.001C9.601,0.585,9.594,0.61,9.576,0.627c-0.018,0.016-0.043,0.019-0.057,0.04
		c-0.005,0.009,0,0.019-0.005,0.028C9.5,0.725,9.501,0.753,9.499,0.786S9.493,0.847,9.503,0.878C9.507,0.888,9.5,0.897,9.505,0.907
		l0.396,0.836L8.309,1.275C8.22,1.248,8.125,1.273,8.062,1.338C7.997,1.402,7.973,1.497,7.999,1.585l0.114,0.39L5.71,2.735
		C5.631,2.76,5.57,2.822,5.546,2.901S5.539,3.066,5.591,3.131L5.64,3.191L4.211,4.581c-0.059,0.057-0.086,0.14-0.072,0.22
		c0.014,0.081,0.066,0.15,0.14,0.185L4.55,5.114L3.658,6.818c-0.041,0.077-0.038,0.17,0.008,0.245S3.792,7.184,3.88,7.184h0.08
		c-0.059,1.02,0.317,2.462,0.416,2.817c-0.592,0.075-1.059,0.562-1.059,1.173v1.966c0,0.663,0.54,1.203,1.203,1.203h0.506
		c0.307,0,0.581-0.125,0.793-0.314c0.016,0.089,0.027,0.186,0.047,0.267c0.146,0.597,0.678,1.037,1.397,1.357l-0.561,1.083
		c-0.06,0.115-0.021,0.257,0.088,0.326l0.196,0.125c-0.176,1.582,0.917,2.419,1.307,2.66v0.398l-0.48,1.922c0,0,0,0,0,0.001
		c-0.318,0.849-0.316,1.457,0.014,1.802c0.176,0.186,0.435,0.279,0.755,0.279c0.219,0,0.466-0.044,0.736-0.132
		c0.699-0.228,1.487-0.739,1.897-1.274c0.415,0.54,1.233,1.053,1.958,1.276c0.258,0.079,0.494,0.118,0.704,0.118
		c0.335,0,0.603-0.101,0.78-0.299c0.299-0.336,0.291-0.891,0.009-1.662c0.008-0.036,0.022-0.071,0.013-0.109l-0.481-1.922v-0.352
		c0.295-0.168,1.573-1.014,1.379-2.713l0.073-0.046c0.11-0.069,0.148-0.211,0.088-0.326l-0.583-1.124
		c0.775-0.329,1.344-0.78,1.496-1.38c0.021-0.075,0.037-0.161,0.052-0.252c0.209,0.175,0.469,0.293,0.762,0.293h0.506
		c0.664,0,1.203-0.54,1.203-1.203v-1.966C19.174,10.562,18.706,10.074,18.112,10z M16.629,10.315
		c-0.041-0.103-0.137-0.179-0.242-0.172c-0.138,0.013-0.238,0.135-0.226,0.272c0.001,0.008,0.021,0.226,0.044,0.552l-0.363-0.602
		l0.235-0.637c0.007-0.018-0.004-0.035-0.002-0.053c0.005-0.034,0.005-0.06-0.004-0.093c-0.008-0.032-0.021-0.055-0.041-0.082
		c-0.011-0.015-0.01-0.035-0.024-0.048l-1.224-1.057c-0.002-0.002-0.005,0-0.008-0.002c-0.025-0.021-0.058-0.021-0.089-0.03
		c-0.031-0.009-0.059-0.028-0.091-0.025c-0.002,0-0.004-0.002-0.006-0.002l-1.031,0.126l-0.202-0.088
		c0.348-1.198,0.36-2.152,0.361-2.24c1.915,0.417,2.755,1.199,2.937,1.39c0.561,1.041,0.636,2.073,0.637,2.482
		C17.038,10.046,16.805,10.145,16.629,10.315z M10.592,7.614c-0.007-0.003-0.015,0.002-0.023,0c-0.03-0.011-0.059-0.004-0.091-0.002
		c-0.033,0.001-0.063-0.002-0.092,0.012c-0.007,0.003-0.016-0.001-0.022,0.003L8.918,8.462L7.902,8.338
		c-0.002,0-0.004,0.002-0.006,0.001c-0.03-0.003-0.056,0.015-0.085,0.023c-0.034,0.01-0.07,0.01-0.098,0.033
		c-0.001,0.001-0.004,0-0.005,0.002L6.485,9.454C6.47,9.467,6.472,9.487,6.461,9.502c-0.02,0.026-0.033,0.05-0.041,0.082
		c-0.009,0.033-0.009,0.06-0.004,0.093c0.002,0.018-0.009,0.035-0.002,0.053l0.234,0.637l-0.347,0.577
		c0.029-0.309,0.055-0.511,0.056-0.518c0.018-0.137-0.079-0.262-0.216-0.28c-0.123-0.017-0.229,0.068-0.262,0.185
		c-0.218-0.22-0.52-0.357-0.854-0.357H5.02C5.024,9.538,5.112,8.521,5.67,7.499c0.259-0.295,1.638-1.626,5.392-1.626
		c0.814,0,1.521,0.064,2.136,0.165l-2,1.85L10.592,7.614z M11.154,4.868c1.87,0.015,3.319,0.472,4.362,1.322
		c-0.946-0.426-2.374-0.816-4.454-0.816l0,0c0,0,0,0,0,0l0,0l0,0c-1.912,0-3.242,0.331-4.148,0.716
		C7.949,5.304,9.358,4.882,11.154,4.868z M12.374,7.531c0.001-0.014-0.01-0.025-0.011-0.039l0.808-0.747
		c-0.088,0.764-0.347,2.119-1.118,3.368L12.374,7.531z M5.114,5.114c0.031-0.06,0.037-0.131,0.015-0.195
		c-0.021-0.064-0.068-0.118-0.13-0.146l-0.18-0.085l1.333-1.296c0.079-0.076,0.097-0.192,0.051-0.288l2.293-0.726
		C8.626,2.337,8.7,2.2,8.661,2.069L8.607,1.883l1.688,0.496c0.008,0.002,0.016-0.004,0.025-0.003
		C10.336,2.38,10.35,2.39,10.366,2.39c0.036,0,0.072-0.008,0.107-0.024c0.003-0.001,0.003-0.005,0.006-0.007
		c0.023-0.011,0.032-0.037,0.05-0.055c0.027-0.028,0.06-0.051,0.071-0.087c0.001-0.003,0.004-0.003,0.005-0.006
		c0.009-0.03-0.007-0.057-0.009-0.086c-0.001-0.031,0.01-0.062-0.004-0.091l-0.268-0.565l2.12,1.331
		c0.041,0.026,0.087,0.038,0.133,0.038c0.083,0,0.164-0.042,0.212-0.117c0.073-0.117,0.038-0.271-0.079-0.345l-0.159-0.1
		l1.329-0.391l-0.054,0.186C13.787,2.2,13.86,2.337,13.99,2.378l2.293,0.726c-0.046,0.095-0.028,0.211,0.051,0.288l1.334,1.296
		l-0.18,0.085c-0.062,0.029-0.109,0.082-0.13,0.146c-0.022,0.064-0.016,0.135,0.015,0.195l0.824,1.576
		c-0.053,0.011-0.102,0.04-0.137,0.083c-0.048,0.056-0.068,0.13-0.056,0.202c0.11,0.668-0.095,1.735-0.249,2.393
		c-0.064-0.558-0.246-1.315-0.658-2.077c-0.005-0.009-0.001-0.021-0.008-0.029c-0.003-0.004-0.013-0.015-0.023-0.028
		c-0.184-0.33-0.398-0.659-0.687-0.972c-1.131-1.225-2.855-1.858-5.116-1.894c-0.006,0-0.01-0.007-0.017-0.007
		c-0.031,0-0.061,0.003-0.092,0.003s-0.06-0.003-0.091-0.003c-0.006,0-0.01,0.006-0.017,0.007c-2.26,0.036-3.983,0.669-5.115,1.894
		C5.647,6.569,5.436,6.894,5.253,7.218C5.23,7.246,5.213,7.269,5.209,7.275C5.201,7.286,5.207,7.3,5.201,7.312
		C4.903,7.869,4.723,8.421,4.629,8.896C4.505,8.269,4.397,7.499,4.484,6.975c0.012-0.073-0.008-0.146-0.056-0.203
		C4.392,6.73,4.343,6.701,4.29,6.689L5.114,5.114z M5.025,13.843H4.52c-0.388,0-0.703-0.315-0.703-0.703v-1.966
		c0-0.387,0.315-0.703,0.703-0.703h0.506c0.387,0,0.703,0.315,0.703,0.703v0.812c-0.016,0.379-0.022,0.782-0.004,1.175
		C5.712,13.539,5.405,13.843,5.025,13.843z M7.731,15.837c0.179,0.061,0.369,0.112,0.562,0.161v1.427l-1.042-0.663L7.731,15.837z
		 M8.739,20.526h2.257v1.192c-0.45-0.309-1.199-0.708-1.929-0.584c-0.19,0.032-0.367,0.098-0.529,0.195L8.739,20.526z
		 M11.496,20.526h2.257l0.201,0.802c-0.163-0.097-0.339-0.163-0.53-0.195c-0.73-0.125-1.479,0.275-1.929,0.584V20.526z
		 M13.699,20.026H8.793v-3.912c0.785,0.153,1.629,0.227,2.415,0.23c0.02,0,0.041,0,0.061,0c0.825,0,1.662-0.079,2.43-0.23V20.026z
		 M7.467,17.492l0.695,0.441c0.041,0.026,0.087,0.038,0.132,0.038v1.262C7.937,18.944,7.459,18.38,7.467,17.492z M9.163,23.642
		c-0.458,0.149-0.821,0.144-0.975-0.017c-0.179-0.188-0.144-0.659,0.095-1.291c0.226-0.414,0.51-0.646,0.867-0.708
		c0.715-0.123,1.517,0.453,1.808,0.687C10.778,22.755,9.944,23.387,9.163,23.642z M14.284,23.605
		c-0.146,0.163-0.505,0.175-0.963,0.035c-0.836-0.257-1.636-0.886-1.829-1.294c0.345-0.288,1.166-0.835,1.849-0.72
		c0.298,0.051,0.542,0.227,0.747,0.52C14.528,23.161,14.373,23.505,14.284,23.605z M14.199,19.296v-1.269
		c0.027-0.006,0.055-0.008,0.08-0.023l0.82-0.52C15.112,18.446,14.559,19.028,14.199,19.296z M15.189,16.833l-0.991,0.629v-1.461
		c0.167-0.042,0.334-0.083,0.489-0.134L15.189,16.833z M11.273,15.845c-0.021,0-0.042,0-0.063,0
		c-2.582-0.011-4.625-0.712-4.858-1.668c-0.072-0.29-0.11-0.644-0.127-1.017c0-0.006,0.004-0.012,0.004-0.019v-1.109l0.91-1.51
		c0.002-0.004,0-0.01,0.002-0.014c0.016-0.029,0.011-0.06,0.014-0.093c0.003-0.033,0.014-0.063,0.004-0.094
		c-0.001-0.005,0.002-0.009,0-0.014L6.942,9.719l1.009-0.872l0.989,0.121c0.01,0.001,0.02,0.002,0.03,0.002l0,0l0,0c0,0,0,0,0,0
		c0,0,0.001,0,0.001,0c0.042,0,0.085-0.011,0.124-0.033l1.407-0.814l0.64,0.29c0.033,0.015,0.068,0.022,0.103,0.022
		c0.052,0,0.101-0.019,0.143-0.049c0.003-0.002,0.007-0.001,0.01-0.003l0.404-0.314l-0.366,2.945
		c-0.001,0.009,0.007,0.016,0.007,0.025c-0.001,0.033,0.013,0.059,0.025,0.09c0.012,0.031,0.019,0.059,0.042,0.083
		c0.006,0.007,0.004,0.017,0.012,0.023c0.024,0.021,0.056,0.021,0.084,0.031c0.018,0.006,0.028,0.024,0.048,0.027
		c0.01,0.001,0.021,0.002,0.031,0.002l0,0l0,0h0c0.069,0,0.128-0.033,0.174-0.081c0.004-0.004,0.012-0.002,0.016-0.007
		c0.639-0.748,1.053-1.58,1.326-2.352l0.219,0.096c0.032,0.014,0.066,0.021,0.099,0.021c0,0,0,0,0,0h0l0,0l0,0
		c0.01,0,0.02,0,0.03-0.002l0.989-0.121l1.009,0.872l-0.216,0.587c-0.002,0.005,0.002,0.009,0,0.014
		c-0.01,0.032,0,0.062,0.004,0.096c0.003,0.032-0.001,0.063,0.014,0.091c0.002,0.005-0.001,0.01,0.002,0.015l0.91,1.511v1.108
		c0,0.022,0.011,0.041,0.013,0.063c-0.012,0.391-0.043,0.739-0.107,0.972C15.922,15.146,13.868,15.845,11.273,15.845z
		 M18.674,13.141c0,0.387-0.315,0.703-0.703,0.703h-0.506c-0.367,0-0.661-0.287-0.691-0.646c0.012-0.401,0.005-0.835-0.011-1.243
		v-0.779c0-0.387,0.315-0.703,0.703-0.703h0.506c0.388,0,0.703,0.315,0.703,0.703V13.141z"/>
</g>
</svg>
