<?xml version="1.0" encoding="iso-8859-1"?>
<!-- Generator: Adobe Illustrator 18.0.0, SVG Export Plug-In . SVG Version: 6.00 Build 0)  -->
<!DOCTYPE svg PUBLIC "-//W3C//DTD SVG 1.1//EN" "http://www.w3.org/Graphics/SVG/1.1/DTD/svg11.dtd">
<svg version="1.1" id="Capa_1" xmlns="http://www.w3.org/2000/svg" xmlns:xlink="http://www.w3.org/1999/xlink" x="0px" y="0px"
	 viewBox="0 0 463.713 463.713" style="enable-background:new 0 0 463.713 463.713;" xml:space="preserve">
<g id="XMLID_299_">
	<path id="XMLID_305_" d="M141.336,49.828c-27.418,22.658-36.856,59.463-25.561,91.566c-7.008-4.836-13.414-10.803-18.854-17.934
		c-17.885-23.401-21.268-53.195-11.905-78.964C43.835,54.963,11.597,90.693,1.644,102.869c-1.981,2.419-2.194,5.849-0.515,8.492
		c10.888,17.176,53.524,78.512,106.432,78.512c51.696,0,94.13-46.997,105.87-61.352c2.01-2.43,2.206-5.892,0.484-8.533
		C205.363,106.706,177.578,67.156,141.336,49.828z"/>
	<path id="XMLID_304_" d="M462.582,111.361c1.674-2.643,1.479-6.073-0.515-8.492c-9.971-12.176-42.197-47.906-83.378-58.372
		c9.38,25.769,5.985,55.563-11.917,78.964c-5.441,7.131-11.846,13.098-18.843,17.934c11.302-32.104,1.857-68.908-25.573-91.566
		c-36.23,17.328-64.015,56.878-72.579,70.16c-1.691,2.642-1.508,6.103,0.485,8.533c11.751,14.355,54.174,61.352,105.898,61.352
		C409.059,189.873,451.688,128.537,462.582,111.361z"/>
	<g id="XMLID_302_">
		<path id="XMLID_303_" d="M454.906,389.789l-100.067-47.92h92.956c8.333,0,15.501-6.407,15.889-14.731
			c0.414-8.885-6.656-16.209-15.454-16.209h-93.391l100.067-47.923c7.724-3.697,10.971-12.931,7.28-20.634
			c-3.684-7.736-12.958-10.953-20.634-7.283l-161.754,77.5c-11.562,5.54-11.565,21.999-0.005,27.543l161.76,77.575
			c2.158,1.029,4.441,1.51,6.677,1.51c5.772,0,11.301-3.23,13.957-8.789C465.876,402.72,462.63,393.49,454.906,389.789z"/>
	</g>
	<g id="XMLID_300_">
		<path id="XMLID_301_" d="M9.752,242.372c-3.685,7.703-0.438,16.936,7.287,20.634l100.067,47.923H24.141
			c-8.335,0-15.501,6.413-15.881,14.739c-0.406,8.885,6.662,16.201,15.455,16.201h93.391l-100.067,47.92
			c-7.724,3.701-10.971,12.932-7.287,20.639c2.662,5.559,8.191,8.789,13.963,8.789c2.236,0,4.512-0.48,6.677-1.51l161.974-77.556
			c11.57-5.54,11.568-22.012-0.002-27.549L30.392,235.089C22.686,231.419,13.442,234.635,9.752,242.372z"/>
	</g>
</g>
<g>
</g>
<g>
</g>
<g>
</g>
<g>
</g>
<g>
</g>
<g>
</g>
<g>
</g>
<g>
</g>
<g>
</g>
<g>
</g>
<g>
</g>
<g>
</g>
<g>
</g>
<g>
</g>
<g>
</g>
</svg>
